<?xml version="1.0" encoding="UTF-8"?>
<svg version="1.1" xmlns="http://www.w3.org/2000/svg" width="64" height="64">
<path d="M0 0 C7.64288664 5.48235331 11.47591883 13.28283402 13.25 22.375 C14.47934805 31.37314477 11.24347303 40.08052774 6.0390625 47.3359375 C0.09659933 54.10878854 -8.00648391 57.45368471 -16.80859375 58.65625 C-26.00097343 59.10014761 -34.91326462 55.37351495 -41.75 49.375 C-47.74851495 42.53826462 -51.47514761 33.62597343 -51.03125 24.43359375 C-49.82868471 15.63148391 -46.48378854 7.52840067 -39.7109375 1.5859375 C-27.16220216 -7.41545216 -13.18570026 -7.97790268 0 0 Z " fill="#7647A9" transform="translate(50.75,5.625)"/>
<path d="M0 0 C1.32 0.66 2.64 1.32 4 2 C4 2.66 4 3.32 4 4 C5.32 4 6.64 4 8 4 C8.66 2.68 9.32 1.36 10 0 C11.32 0.66 12.64 1.32 14 2 C14 2.66 14 3.32 14 4 C15.32 4 16.64 4 18 4 C18.66 2.68 19.32 1.36 20 0 C21.32 0.66 22.64 1.32 24 2 C24 2.66 24 3.32 24 4 C25.32 4.66 26.64 5.32 28 6 C28.02465881 9.96930989 28.04284023 13.93859034 28.05493164 17.90795898 C28.05997057 19.25920386 28.06680177 20.61044326 28.07543945 21.96166992 C28.08752419 23.90020434 28.09269828 25.838778 28.09765625 27.77734375 C28.10289307 28.94515381 28.10812988 30.11296387 28.11352539 31.31616211 C28 34 28 34 27 35 C25.00041636 35.04080783 22.99954746 35.04254356 21 35 C20.7525 35.639375 20.505 36.27875 20.25 36.9375 C19 39 19 39 16.875 39.75 C16.25625 39.8325 15.6375 39.915 15 40 C15.495 39.236875 15.99 38.47375 16.5 37.6875 C18.24368308 35.07636249 18.24368308 35.07636249 18 32 C15.8614515 34.1385485 15.57344937 35.13275314 15 38 C12.36 38 9.72 38 7 38 C6.690625 37.195625 6.38125 36.39125 6.0625 35.5625 C5.23664655 33.10919595 5.23664655 33.10919595 4 32 C4.54723683 35.37462715 5.0549 37.08235 7 40 C3.125 38.25 3.125 38.25 2 36 C1.76666667 29.46666667 1.76666667 29.46666667 3 27 C1.68 27 0.36 27 -1 27 C-1 28.32 -1 29.64 -1 31 C-0.34 31 0.32 31 1 31 C1 32.32 1 33.64 1 35 C-0.99954746 35.04254356 -3.00041636 35.04080783 -5 35 C-6 34 -6 34 -6.11352539 31.31616211 C-6.10828857 30.14835205 -6.10305176 28.98054199 -6.09765625 27.77734375 C-6.09443359 26.51728516 -6.09121094 25.25722656 -6.08789062 23.95898438 C-6.07953403 22.61848891 -6.07106907 21.27799412 -6.0625 19.9375 C-6.0574866 18.59310058 -6.05292342 17.2486994 -6.04882812 15.90429688 C-6.03699488 12.60282059 -6.02050971 9.30143197 -6 6 C-5.36578125 5.71382812 -4.7315625 5.42765625 -4.078125 5.1328125 C-1.58438799 3.77344458 -1.03567876 2.58919691 0 0 Z " fill="#865CB3" transform="translate(21,11)"/>
<path d="M0 0 C1.32 0.66 2.64 1.32 4 2 C4 2.66 4 3.32 4 4 C5.32 4 6.64 4 8 4 C8.66 2.68 9.32 1.36 10 0 C11.32 0.66 12.64 1.32 14 2 C14 2.66 14 3.32 14 4 C15.32 4 16.64 4 18 4 C18.66 2.68 19.32 1.36 20 0 C21.32 0.66 22.64 1.32 24 2 C24 2.66 24 3.32 24 4 C25.32 4.66 26.64 5.32 28 6 C28.02465881 9.96930989 28.04284023 13.93859034 28.05493164 17.90795898 C28.05997057 19.25920386 28.06680177 20.61044326 28.07543945 21.96166992 C28.08752419 23.90020434 28.09269828 25.838778 28.09765625 27.77734375 C28.10289307 28.94515381 28.10812988 30.11296387 28.11352539 31.31616211 C28 34 28 34 27 35 C25.00041636 35.04080783 22.99954746 35.04254356 21 35 C21 34.67 21 34.34 21 34 C23.475 33.505 23.475 33.505 26 33 C26.33 26.73 26.66 20.46 27 14 C16.44 14 5.88 14 -5 14 C-4.67 20.27 -4.34 26.54 -4 33 C-2.35 33.33 -0.7 33.66 1 34 C1 34.33 1 34.66 1 35 C-0.99954746 35.04254356 -3.00041636 35.04080783 -5 35 C-6 34 -6 34 -6.11352539 31.31616211 C-6.10828857 30.14835205 -6.10305176 28.98054199 -6.09765625 27.77734375 C-6.09443359 26.51728516 -6.09121094 25.25722656 -6.08789062 23.95898438 C-6.07953403 22.61848891 -6.07106907 21.27799412 -6.0625 19.9375 C-6.0574866 18.59310058 -6.05292342 17.2486994 -6.04882812 15.90429688 C-6.03699488 12.60282059 -6.02050971 9.30143197 -6 6 C-5.36578125 5.71382812 -4.7315625 5.42765625 -4.078125 5.1328125 C-1.58438799 3.77344458 -1.03567876 2.58919691 0 0 Z " fill="#E0CDE8" transform="translate(21,11)"/>
<path d="M0 0 C1.672233 0.65257873 3.33927151 1.31867549 5 2 C7.70886941 2.16798262 7.70886941 2.16798262 10 2 C10 4.31 10 6.62 10 9 C9.01 8.67 8.02 8.34 7 8 C7.66 8 8.32 8 9 8 C9 6.68 9 5.36 9 4 C7.68 4 6.36 4 5 4 C5.33 4.66 5.66 5.32 6 6 C6.46280992 12.24793388 6.46280992 12.24793388 4.5 15.4375 C4.005 15.953125 3.51 16.46875 3 17 C2.34 16.67 1.68 16.34 1 16 C1.495 15.401875 1.99 14.80375 2.5 14.1875 C4.28276418 12.02970006 4.28276418 12.02970006 4 9 C1.8614515 11.1385485 1.57344937 12.13275314 1 15 C-1.64 15 -4.28 15 -7 15 C-7.309375 14.195625 -7.61875 13.39125 -7.9375 12.5625 C-8.76335345 10.10919595 -8.76335345 10.10919595 -10 9 C-9.45276317 12.37462715 -8.9451 14.08235 -7 17 C-10.875 15.25 -10.875 15.25 -12 13 C-12.04022391 10.6670134 -12.04320247 8.33293334 -12 6 C-11.34 5.67 -10.68 5.34 -10 5 C-9.67 4.34 -9.34 3.68 -9 3 C-7.05630172 -0.88739655 -3.94161405 -0.23185965 0 0 Z " fill="#9C8BC8" transform="translate(35,34)"/>
<path d="M0 0 C4.29 0 8.58 0 13 0 C13.02683697 3.14588944 13.04675902 6.29155271 13.0625 9.4375 C13.07087891 10.33533203 13.07925781 11.23316406 13.08789062 12.15820312 C13.09111328 13.01220703 13.09433594 13.86621094 13.09765625 14.74609375 C13.10289307 15.53685303 13.10812988 16.3276123 13.11352539 17.14233398 C13 19 13 19 12 20 C10.33382885 20.04063832 8.66611905 20.042721 7 20 C6.67 21.32 6.34 22.64 6 24 C4.79727181 21.59454362 4.89928528 20.05003047 4.9375 17.375 C4.94652344 16.55773437 4.95554687 15.74046875 4.96484375 14.8984375 C4.97644531 14.27195312 4.98804688 13.64546875 5 13 C6.32 13 7.64 13 9 13 C9.33 14.65 9.66 16.3 10 18 C10 15.69 10 13.38 10 11 C8.9275 11.2475 7.855 11.495 6.75 11.75 C3 12 3 12 0.5 10.5625 C-1.73712603 6.74074304 -0.85656174 4.28280869 0 0 Z " fill="#7C4FAD" transform="translate(35,25)"/>
<path d="M0 0 C0.99 0.99 1.98 1.98 3 3 C3.556875 2.649375 4.11375 2.29875 4.6875 1.9375 C7.5828428 0.76371238 9.01253695 1.25313424 12 2 C15.7827285 2.16169042 15.7827285 2.16169042 18.5 1.375 C21 1 21 1 23.0625 2.0625 C23.701875 2.371875 24.34125 2.68125 25 3 C27.23470405 2.21690533 27.23470405 2.21690533 29 1 C30 2 30 2 30 8 C19.44 8 8.88 8 -2 8 C-2 2 -2 2 0 0 Z " fill="#A54DB0" transform="translate(18,16)"/>
<path d="M0 0 C0.99 0.33 1.98 0.66 3 1 C3 1.66 3 2.32 3 3 C4.32 3.33 5.64 3.66 7 4 C6.33333333 6.66666667 5.66666667 9.33333333 5 12 C2.36 12 -0.28 12 -3 12 C-5.09230769 7.56923077 -5.09230769 7.56923077 -4.625 4.6875 C-4.41875 4.130625 -4.2125 3.57375 -4 3 C-3.01 3 -2.02 3 -1 3 C-0.67 2.01 -0.34 1.02 0 0 Z " fill="#C2BEDF" transform="translate(31,37)"/>
<path d="M0 0 C1.32 0.66 2.64 1.32 4 2 C4 2.66 4 3.32 4 4 C5.32 4 6.64 4 8 4 C8.66 2.68 9.32 1.36 10 0 C10.99 0.33 11.98 0.66 13 1 C12.67 1.66 12.34 2.32 12 3 C11.34 2.67 10.68 2.34 10 2 C10 3.98 10 5.96 10 8 C9.0925 7.79375 8.185 7.5875 7.25 7.375 C3.88972103 6.9872755 2.75924185 7.19588033 0 9 C-0.99 8.01 -1.98 7.02 -3 6 C-3.99 6.495 -3.99 6.495 -5 7 C-4.67 6.01 -4.34 5.02 -4 4 C-3.34 4 -2.68 4 -2 4 C-1.34 2.68 -0.68 1.36 0 0 Z " fill="#C778C4" transform="translate(21,11)"/>
<path d="M0 0 C2 1.25 2 1.25 4 3 C4 4.32 4 5.64 4 7 C6.64 7 9.28 7 12 7 C12.103125 6.21625 12.20625 5.4325 12.3125 4.625 C13 2 13 2 16 0 C15.67815583 2.89659753 15.38591512 5.31897331 13.9375 7.875 C10.75356718 9.72373519 7.51172664 9.76311162 4 9 C1.5 6.75 1.5 6.75 0 4 C0 2.68 0 1.36 0 0 Z " fill="#5055AC" transform="translate(24,42)"/>
<path d="M0 0 C1.875 1.5 1.875 1.5 3 3 C0.36 2.34 -2.28 1.68 -5 1 C-5 2.65 -5 4.3 -5 6 C-5.99 6.33 -6.98 6.66 -8 7 C-8.66 7.66 -9.32 8.32 -10 9 C-9.64700993 12.44165321 -8.95418308 14.06872538 -7 17 C-10.875 15.25 -10.875 15.25 -12 13 C-12.04022391 10.6670134 -12.04320247 8.33293334 -12 6 C-11.34 5.67 -10.68 5.34 -10 5 C-9.67 4.34 -9.34 3.68 -9 3 C-7.06874077 -0.86251847 -3.92723678 -0.32059076 0 0 Z " fill="#A597CE" transform="translate(35,34)"/>
<path d="M0 0 C0.66 0 1.32 0 2 0 C2.33 0.66 2.66 1.32 3 2 C3.99 2.66 4.98 3.32 6 4 C5.34 5.65 4.68 7.3 4 9 C2.02 9 0.04 9 -2 9 C-2.66 7.02 -3.32 5.04 -4 3 C-3.01 2.67 -2.02 2.34 -1 2 C-0.67 1.34 -0.34 0.68 0 0 Z " fill="#544BA8" transform="translate(31,39)"/>
<path d="M0 0 C1.67542976 0.28604898 3.34385343 0.61781233 5 1 C5 2.98 5 4.96 5 7 C3.02 7 1.04 7 -1 7 C-1.04254356 5.00045254 -1.04080783 2.99958364 -1 1 C-0.67 0.67 -0.34 0.34 0 0 Z " fill="#B38ECB" transform="translate(40,26)"/>
<path d="M0 0 C1.67542976 0.28604898 3.34385343 0.61781233 5 1 C5 2.98 5 4.96 5 7 C3.02 7 1.04 7 -1 7 C-1.04254356 5.00045254 -1.04080783 2.99958364 -1 1 C-0.67 0.67 -0.34 0.34 0 0 Z " fill="#B38ECB" transform="translate(30,26)"/>
<path d="M0 0 C1.67542976 0.28604898 3.34385343 0.61781233 5 1 C5 2.98 5 4.96 5 7 C3.02 7 1.04 7 -1 7 C-1.04254356 5.00045254 -1.04080783 2.99958364 -1 1 C-0.67 0.67 -0.34 0.34 0 0 Z " fill="#B38ECB" transform="translate(20,26)"/>
<path d="M0 0 C1.32 0 2.64 0 4 0 C4 0.66 4 1.32 4 2 C5.32 2.66 6.64 3.32 8 4 C5.34771188 5.07525194 2.71631546 6.09456151 0 7 C0 4.69 0 2.38 0 0 Z " fill="#C778C4" transform="translate(31,13)"/>
<path d="M0 0 C1.32 0 2.64 0 4 0 C4 0.66 4 1.32 4 2 C4.99 2.33 5.98 2.66 7 3 C6.67 3.66 6.34 4.32 6 5 C4.02 5 2.04 5 0 5 C0 3.35 0 1.7 0 0 Z " fill="#CA7DC6" transform="translate(41,13)"/>
<path d="M0 0 C1.32 0 2.64 0 4 0 C4 1.32 4 2.64 4 4 C3.34 4 2.68 4 2 4 C2 5.98 2 7.96 2 10 C1.01 10.495 1.01 10.495 0 11 C0 7.37 0 3.74 0 0 Z " fill="#5D50AB" transform="translate(40,38)"/>
<path d="M0 0 C0.99 0.33 1.98 0.66 3 1 C2.67 1.66 2.34 2.32 2 3 C1.34 2.67 0.68 2.34 0 2 C0 3.98 0 5.96 0 8 C-0.99 7.34 -1.98 6.68 -3 6 C-3.99 6.495 -3.99 6.495 -5 7 C-4.67 6.01 -4.34 5.02 -4 4 C-3.34 4 -2.68 4 -2 4 C-1.34 2.68 -0.68 1.36 0 0 Z " fill="#E0AFDC" transform="translate(21,11)"/>
<path d="M0 0 C0.99 0.33 1.98 0.66 3 1 C2.67 1.66 2.34 2.32 2 3 C1.34 2.67 0.68 2.34 0 2 C0 3.98 0 5.96 0 8 C-0.66 7.67 -1.32 7.34 -2 7 C-2 6.34 -2 5.68 -2 5 C-3.65 5 -5.3 5 -7 5 C-7 4.67 -7 4.34 -7 4 C-5.35 4 -3.7 4 -2 4 C-1.34 2.68 -0.68 1.36 0 0 Z " fill="#E2B4DE" transform="translate(31,11)"/>
<path d="M0 0 C2 1.25 2 1.25 4 3 C4 4.32 4 5.64 4 7 C4.66 7.33 5.32 7.66 6 8 C5.01 8 4.02 8 3 8 C0.19744677 5.0936485 0 4.21174952 0 0 Z " fill="#5A5AAF" transform="translate(24,42)"/>
<path d="M0 0 C1.32 0 2.64 0 4 0 C3.67 2.97 3.34 5.94 3 9 C2.67 9 2.34 9 2 9 C2 7.35 2 5.7 2 4 C1.34 4 0.68 4 0 4 C0 2.68 0 1.36 0 0 Z " fill="#624FAB" transform="translate(20,38)"/>
</svg>
